<svg width="1800" height="200" viewBox="0 0 1800 200" fill="none" xmlns="http://www.w3.org/2000/svg">
<path d="M300 20.2771H339.561V81.9498H407.294V20.2771H446.855V179.724H407.294V115.042H339.561V179.724H300V20.2771Z" fill="black"/>
<path d="M554.855 183.334C544.065 183.334 533.775 181.729 523.985 178.52C514.394 175.111 506.003 170.097 498.81 163.478C491.617 156.659 485.922 148.135 481.727 137.906C477.531 127.477 475.433 115.343 475.433 101.505V95.4877C475.433 82.2506 477.431 70.7183 481.427 60.8908C485.423 51.0633 490.918 42.9406 497.911 36.5226C504.904 29.9041 512.996 24.9903 522.187 21.7813C531.378 18.3718 541.268 16.667 551.858 16.667C576.833 16.667 595.814 23.2855 608.802 36.5226C621.789 49.7597 628.282 68.9133 628.282 93.9835V110.831H515.893C516.093 117.85 517.292 123.967 519.489 129.182C521.687 134.196 524.584 138.308 528.181 141.517C531.777 144.726 535.873 147.132 540.469 148.737C545.264 150.141 550.059 150.843 554.855 150.843C565.045 150.843 572.737 149.338 577.932 146.33C583.127 143.322 586.823 138.909 589.021 133.093H625.285C622.088 149.74 614.196 162.275 601.609 170.698C589.021 179.122 573.436 183.334 554.855 183.334ZM553.356 49.158C548.761 49.158 544.165 49.7597 539.57 50.963C535.174 52.1664 531.278 54.0717 527.881 56.679C524.485 59.2863 521.687 62.7962 519.489 67.2085C517.292 71.6209 516.093 76.9357 515.893 83.1532H589.92C589.72 76.5346 588.621 71.0192 586.623 66.6068C584.825 62.1945 582.228 58.6846 578.831 56.0774C575.634 53.4701 571.838 51.665 567.442 50.6622C563.047 49.6594 558.351 49.158 553.356 49.158Z" fill="black"/>
<path d="M692.513 53.3698H641.863V20.2771H782.724V53.3698H732.074V179.724H692.513V53.3698Z" fill="black"/>
<path d="M875.633 183.334C864.843 183.334 854.553 181.729 844.763 178.52C835.172 175.111 826.781 169.996 819.588 163.177C812.395 156.358 806.7 147.834 802.505 137.606C798.309 127.377 796.211 115.343 796.211 101.505V95.4877C796.211 82.4512 798.309 71.0192 802.505 61.1917C806.7 51.3642 812.395 43.1411 819.588 36.5226C826.781 29.9041 835.172 24.9903 844.763 21.7813C854.553 18.3718 864.843 16.667 875.633 16.667C886.422 16.667 896.612 18.3718 906.203 21.7813C915.793 24.9903 924.185 29.9041 931.378 36.5226C938.77 43.1411 944.565 51.3642 948.761 61.1917C952.957 71.0192 955.054 82.4512 955.054 95.4877V101.505C955.054 115.143 952.957 127.076 948.761 137.305C944.565 147.533 938.77 156.057 931.378 162.876C924.185 169.695 915.793 174.81 906.203 178.219C896.612 181.629 886.422 183.334 875.633 183.334ZM875.633 149.639C886.822 149.639 896.112 145.628 903.505 137.606C911.098 129.583 914.894 117.549 914.894 101.505V95.4877C914.894 80.8467 911.098 69.7155 903.505 62.0942C896.112 54.2723 886.822 50.3613 875.633 50.3613C864.244 50.3613 854.853 54.2723 847.46 62.0942C840.068 69.7155 836.371 80.8467 836.371 95.4877V101.505C836.371 117.75 840.068 129.884 847.46 137.906C854.853 145.728 864.244 149.639 875.633 149.639Z" fill="black"/>
<path d="M981.981 183.334C980.383 183.334 978.385 183.233 975.987 183.033C973.589 183.033 971.591 182.832 969.993 182.431V146.631C970.992 146.831 972.49 146.932 974.488 146.932C978.285 146.932 981.581 145.829 984.379 143.622C987.176 141.216 989.474 137.204 991.272 131.589C993.27 125.973 994.669 118.552 995.468 109.326C996.467 99.9001 996.966 88.2675 996.966 74.4287V20.2771H1122.84V179.724H1083.28V53.3698H1033.53V80.4456C1033.53 101.103 1032.43 118.151 1030.23 131.589C1028.24 144.826 1025.04 155.255 1020.64 162.876C1016.45 170.498 1011.05 175.813 1004.46 178.821C998.065 181.829 990.573 183.334 981.981 183.334Z" fill="black"/>
<path d="M1230.65 183.334C1219.86 183.334 1209.58 181.729 1199.78 178.52C1190.19 175.111 1181.8 169.996 1174.61 163.177C1167.42 156.358 1161.72 147.834 1157.53 137.606C1153.33 127.377 1151.23 115.343 1151.23 101.505V95.4877C1151.23 82.4512 1153.33 71.0192 1157.53 61.1917C1161.72 51.3642 1167.42 43.1411 1174.61 36.5226C1181.8 29.9041 1190.19 24.9903 1199.78 21.7813C1209.58 18.3718 1219.86 16.667 1230.65 16.667C1241.44 16.667 1251.63 18.3718 1261.22 21.7813C1270.81 24.9903 1279.21 29.9041 1286.4 36.5226C1293.79 43.1411 1299.59 51.3642 1303.78 61.1917C1307.98 71.0192 1310.08 82.4512 1310.08 95.4877V101.505C1310.08 115.143 1307.98 127.076 1303.78 137.305C1299.59 147.533 1293.79 156.057 1286.4 162.876C1279.21 169.695 1270.81 174.81 1261.22 178.219C1251.63 181.629 1241.44 183.334 1230.65 183.334ZM1230.65 149.639C1241.84 149.639 1251.13 145.628 1258.53 137.606C1266.12 129.583 1269.92 117.549 1269.92 101.505V95.4877C1269.92 80.8467 1266.12 69.7155 1258.53 62.0942C1251.13 54.2723 1241.84 50.3613 1230.65 50.3613C1219.27 50.3613 1209.87 54.2723 1202.48 62.0942C1195.09 69.7155 1191.39 80.8467 1191.39 95.4877V101.505C1191.39 117.75 1195.09 129.884 1202.48 137.906C1209.87 145.728 1219.27 149.639 1230.65 149.639Z" fill="black"/>
<path d="M1341.43 20.2771H1455.32V53.3698H1380.99V179.724H1341.43V20.2771Z" fill="black"/>
<path d="M1479.21 20.2771H1518.77V122.563L1589.5 20.2771H1626.07V179.724H1586.5V77.4372L1515.77 179.724H1479.21V20.2771Z" fill="black"/>
<path d="M1694.2 119.856C1682.02 115.845 1673.13 109.828 1667.53 101.805C1661.94 93.7829 1659.14 84.3565 1659.14 73.5262C1659.14 65.7043 1660.44 58.5844 1663.03 52.1664C1665.83 45.5479 1669.93 39.9321 1675.32 35.3192C1680.72 30.5058 1687.51 26.7954 1695.7 24.1881C1704.09 21.5808 1713.88 20.2771 1725.07 20.2771H1800V179.724H1760.44V124.669H1731.97L1697.5 179.724H1653.14L1694.2 119.856ZM1698.7 73.5262C1698.7 80.3453 1700.9 85.3593 1705.29 88.5683C1709.89 91.7773 1715.98 93.3818 1723.58 93.3818H1760.44V53.3698H1723.58C1715.98 53.3698 1709.89 55.0745 1705.29 58.4841C1700.9 61.6931 1698.7 66.7071 1698.7 73.5262Z" fill="black"/>
<path fill-rule="evenodd" clip-rule="evenodd" d="M51.5327 104.805C50.26 104.703 48.9733 104.651 47.6744 104.651C21.3446 104.651 2.61581e-06 125.996 0 152.326C-2.69971e-06 178.656 21.3446 200 47.6744 200C74.0043 200 95.3488 178.656 95.3488 152.326C95.3488 150.305 95.2231 148.313 94.9789 146.358C72.4337 144.552 54.3121 127.062 51.5327 104.805Z" fill="black"/>
<path fill-rule="evenodd" clip-rule="evenodd" d="M95.3488 47.6744C95.3488 21.3446 74.0043 2.61581e-06 47.6744 0C21.3446 -4.2595e-06 2.61581e-06 21.3446 0 47.6744C-2.61581e-06 74.0043 21.3446 95.3488 47.6744 95.3488C48.8937 95.3488 50.1022 95.3031 51.2985 95.2131C53.0604 71.7726 71.7726 53.0603 95.2132 51.2985C95.3031 50.1022 95.3488 48.8937 95.3488 47.6744Z" fill="black"/>
<path fill-rule="evenodd" clip-rule="evenodd" d="M146.358 94.9789C148.313 95.2231 150.305 95.3488 152.326 95.3488C178.656 95.3488 200 74.0043 200 47.6744C200 21.3446 178.656 5.07538e-06 152.326 0C125.996 -4.91764e-06 104.651 21.3446 104.651 47.6744C104.651 48.9733 104.703 50.26 104.805 51.5327C127.062 54.3121 144.552 72.4337 146.358 94.9789Z" fill="black"/>
<path fill-rule="evenodd" clip-rule="evenodd" d="M105.053 146.11C104.788 148.145 104.651 150.219 104.651 152.326C104.651 178.656 125.996 200 152.326 200C178.656 200 200 178.656 200 152.326C200 125.996 178.656 104.651 152.326 104.651C150.219 104.651 148.145 104.788 146.11 105.053C143.329 126.412 126.412 143.329 105.053 146.11Z" fill="black"/>
</svg>
